HIERARCHY
ROOT joint_Root
{
	OFFSET 0.0 0.0 0.0
	CHANNELS 6 Xposition Yposition Zposition Zrotation Xrotation Yrotation 
	JOINT Hips
	{
		OFFSET -17.1583 93.1646 452.98
		CHANNELS 6 Xposition Yposition Zposition Zrotation Xrotation Yrotation 
		JOINT Spine
		{
			OFFSET 15.7357 0.0 0.0
			CHANNELS 6 Xposition Yposition Zposition Zrotation Xrotation Yrotation 
			JOINT Chest
			{
				OFFSET 8.98455 -0.406207 0.0
				CHANNELS 6 Xposition Yposition Zposition Zrotation Xrotation Yrotation 
				JOINT Neck
				{
					OFFSET 16.3773 0.0 0.0
					CHANNELS 6 Xposition Yposition Zposition Zrotation Xrotation Yrotation 
					JOINT Head
					{
						OFFSET 6.45672 0.0 0.0
						CHANNELS 6 Xposition Yposition Zposition Zrotation Xrotation Yrotation 
						End Site
						{
							OFFSET 0.0 0.0 0.0
						}
					}
				}
				JOINT Shoulder_L
				{
					OFFSET 12.9942 -0.242716 4.98039
					CHANNELS 6 Xposition Yposition Zposition Zrotation Xrotation Yrotation 
					JOINT UpperArm_L
					{
						OFFSET 5.34809 0.0 0.0
						CHANNELS 6 Xposition Yposition Zposition Zrotation Xrotation Yrotation 
						JOINT LowerArm_L
						{
							OFFSET 24.3286 1.87007e-05 0.0
							CHANNELS 6 Xposition Yposition Zposition Zrotation Xrotation Yrotation 
							JOINT Hand_L
							{
								OFFSET 22.2916 0.0 0.0
								CHANNELS 6 Xposition Yposition Zposition Zrotation Xrotation Yrotation 
								End Site
								{
									OFFSET 0.0 0.0 0.0
								}
							}
						}
					}
				}
				JOINT Shoulder_R
				{
					OFFSET 12.9945 -0.242716 -4.98039
					CHANNELS 6 Xposition Yposition Zposition Zrotation Xrotation Yrotation 
					JOINT UpperArm_R
					{
						OFFSET -5.34813 0.0 0.0
						CHANNELS 6 Xposition Yposition Zposition Zrotation Xrotation Yrotation 
						JOINT LowerArm_R
						{
							OFFSET -24.3289 0.000322201 0.0
							CHANNELS 6 Xposition Yposition Zposition Zrotation Xrotation Yrotation 
							JOINT Hand_R
							{
								OFFSET -22.2915 -0.000108084 0.0
								CHANNELS 6 Xposition Yposition Zposition Zrotation Xrotation Yrotation 
								End Site
								{
									OFFSET 0.0 0.0 0.0
								}
							}
						}
					}
				}
			}
		}
		JOINT UpperLeg_L
		{
			OFFSET -2.19248 -6.46944 0.0
			CHANNELS 6 Xposition Yposition Zposition Zrotation Xrotation Yrotation 
			JOINT LowerLeg_L
			{
				OFFSET 39.0811 0.0 -1.23785e-05
				CHANNELS 6 Xposition Yposition Zposition Zrotation Xrotation Yrotation 
				JOINT Foot_L
				{
					OFFSET 40.9854 0.0 -1.26872e-05
					CHANNELS 6 Xposition Yposition Zposition Zrotation Xrotation Yrotation 
					JOINT Toes_L
					{
						OFFSET 11.7543 0.0 0.0
						CHANNELS 6 Xposition Yposition Zposition Zrotation Xrotation Yrotation 
						End Site
						{
							OFFSET 0.0 0.0 0.0
						}
					}
				}
			}
		}
		JOINT UpperLeg_R
		{
			OFFSET -2.19251 6.46944 0.0
			CHANNELS 6 Xposition Yposition Zposition Zrotation Xrotation Yrotation 
			JOINT LowerLeg_R
			{
				OFFSET -39.0811 -0.00228153 -0.0401928
				CHANNELS 6 Xposition Yposition Zposition Zrotation Xrotation Yrotation 
				JOINT Foot_R
				{
					OFFSET -40.9854 0.0 0.0
					CHANNELS 6 Xposition Yposition Zposition Zrotation Xrotation Yrotation 
					JOINT Toes_R
					{
						OFFSET -11.7543 0.0 0.0
						CHANNELS 6 Xposition Yposition Zposition Zrotation Xrotation Yrotation 
						End Site
						{
							OFFSET 0.0 0.0 0.0
						}
					}
				}
			}
		}
	}
}
MOTION
Frames:	4
Frame Time:	0.0333333
0.000000 0.000000 0.000000 0.000000 0.000000 -0.000000 -3.879760 92.050000 0.097606 85.461100 0.709772 3.304590 15.735700 0.000005 -0.000001 77.012200 86.695100 -73.979000 8.984550 -0.406207 -0.000000 -1.272560 -1.724250 6.045550 16.377300 -0.000001 -0.000001 10.273000 2.947010 -10.044100 6.456720 -0.000001 -0.000000 4.226300 1.086720 -17.351000 12.994200 -0.242716 4.980390 -92.971600 7.977320 -69.491800 5.348090 -0.000007 -0.000001 -68.088800 -2.326580 -0.874128 24.328600 0.000019 0.000005 60.244000 -40.581600 -110.399000 22.291600 -0.000001 0.000005 63.823500 4.725550 12.713500 12.994500 -0.242716 -4.980390 88.306700 5.062710 -71.479500 -5.348130 -0.000001 -0.000004 -69.661300 27.779500 -4.715800 -24.328900 0.000322 -0.000009 1.531930 5.647580 -15.213400 -22.291500 -0.000108 -0.000004 1.776170 5.241720 1.650400 -2.192480 -6.469440 -0.000000 -171.872000 1.170020 -3.368080 39.081100 -0.000007 -0.000012 0.241366 -0.491921 26.135700 40.985400 -0.000006 -0.000013 -0.698880 12.571600 -75.080400 11.754300 -0.000000 0.000003 0.000160 0.164880 -9.889520 -2.192510 6.469440 -0.000001 -171.066000 6.590550 -176.428000 -39.081100 -0.002282 -0.040193 0.118650 -0.451234 14.335900 -40.985400 0.000008 0.000006 5.501060 0.088569 -70.812600 -11.754300 -0.000006 -0.000006 -0.008441 0.259266 -6.043130
0.000000 0.000000 0.000000 0.000000 0.000000 -0.000000 -3.884350 92.046700 0.101744 85.457300 0.757916 3.360920 15.735700 0.000005 -0.000001 76.581300 86.677700 -73.534200 8.984550 -0.406207 -0.000000 -1.248210 -1.781170 6.073170 16.377300 -0.000001 -0.000001 10.295900 2.933570 -10.027500 6.456720 -0.000001 -0.000000 4.317130 1.155990 -17.409900 12.994200 -0.242716 4.980390 -92.951800 7.959410 -69.575500 5.348090 -0.000007 -0.000001 -68.776500 -3.930310 -1.230630 24.328600 0.000019 0.000005 52.826600 -37.028500 -114.543000 22.291600 -0.000001 0.000005 60.538400 4.561940 15.582500 12.994500 -0.242716 -4.980390 88.302200 5.068620 -71.453500 -5.348130 -0.000001 -0.000004 -69.666600 27.843200 -4.693850 -24.328900 0.000322 -0.000009 1.515660 5.579110 -15.234900 -22.291500 -0.000108 -0.000004 1.744700 5.240670 1.678170 -2.192480 -6.469440 -0.000000 -171.867000 1.194410 -3.309160 39.081100 -0.000007 -0.000012 0.244918 -0.499140 26.136600 40.985400 -0.000006 -0.000013 -0.606126 12.610700 -75.132500 11.754300 -0.000000 0.000003 0.000203 0.164130 -9.919960 -2.192510 6.469440 -0.000001 -171.053000 6.572030 -176.376000 -39.081100 -0.002282 -0.040193 0.118672 -0.451209 14.339300 -40.985400 0.000008 0.000006 5.490750 -0.008189 -70.798100 -11.754300 -0.000006 -0.000006 -0.008160 0.257003 -6.135550
0.000000 0.000000 0.000000 0.000000 0.000000 -0.000000 -3.884820 92.046900 0.097968 85.462800 0.717164 3.343250 15.735700 0.000005 -0.000001 76.140700 86.684300 -73.087400 8.984550 -0.406207 -0.000000 -1.271760 -1.828750 6.084690 16.377300 -0.000001 -0.000001 10.300900 2.989690 -9.994080 6.456720 -0.000001 -0.000000 4.325690 1.226820 -17.378800 12.994200 -0.242716 4.980390 -92.925900 7.921870 -69.653100 5.348090 -0.000007 -0.000001 -69.539900 -5.782040 -1.455720 24.328600 0.000019 0.000005 43.459300 -32.554600 -119.590000 22.291600 -0.000001 0.000005 57.573100 4.310540 19.641400 12.994500 -0.242716 -4.980390 88.310000 5.036840 -71.424700 -5.348130 -0.000001 -0.000004 -69.683500 27.957500 -4.750180 -24.328900 0.000322 -0.000009 1.511920 5.577800 -15.202500 -22.291500 -0.000108 -0.000004 1.598010 5.240530 1.681780 -2.192480 -6.469440 -0.000000 -171.872000 1.171260 -3.311790 39.081100 -0.000007 -0.000012 0.244735 -0.499167 26.118500 40.985400 -0.000006 -0.000013 -0.570288 12.601500 -75.118900 11.754300 -0.000000 0.000003 0.000342 0.161649 -10.020700 -2.192510 6.469440 -0.000001 -171.047000 6.524600 -176.396000 -39.081100 -0.002282 -0.040193 0.119725 -0.454924 14.351600 -40.985400 0.000008 0.000006 5.489490 -0.031694 -70.821800 -11.754300 -0.000006 -0.000006 -0.008269 0.257880 -6.099720
0.000000 0.000000 0.000000 0.000000 0.000000 -0.000000 -3.880250 92.045800 0.093653 85.463100 0.608376 3.334990 15.735700 0.000005 -0.000001 76.011500 86.683900 -72.968100 8.984550 -0.406207 -0.000000 -1.274480 -1.842730 6.064600 16.377300 -0.000001 -0.000001 10.246900 3.045990 -9.900180 6.456720 -0.000001 -0.000000 4.315590 1.345090 -17.254000 12.994200 -0.242716 4.980390 -92.908000 7.878250 -69.665000 5.348090 -0.000007 -0.000001 -70.178900 -7.572520 -1.619740 24.328600 0.000019 0.000005 32.626300 -26.559800 -124.933000 22.291600 -0.000001 0.000005 56.403300 4.111060 22.628100 12.994500 -0.242716 -4.980390 88.297400 5.078640 -71.438800 -5.348130 -0.000001 -0.000004 -69.677600 27.908500 -4.758280 -24.328900 0.000322 -0.000009 1.537710 5.653440 -15.253000 -22.291500 -0.000108 -0.000004 1.623780 5.240500 1.682560 -2.192480 -6.469440 -0.000000 -171.885000 1.110200 -3.307350 39.081100 -0.000007 -0.000012 0.244606 -0.498515 26.136100 40.985400 -0.000006 -0.000013 -0.623168 12.505500 -75.132100 11.754300 -0.000000 0.000003 0.000161 0.164874 -9.889760 -2.192510 6.469440 -0.000001 -171.068000 6.500840 -176.423000 -39.081100 -0.002282 -0.040193 0.119859 -0.453842 14.400200 -40.985400 0.000008 0.000006 5.504280 0.101642 -70.827700 -11.754300 -0.000006 -0.000006 -0.008319 0.258285 -6.083190
